<svg width="100" height="100" viewBox="0 0 100 100" fill="none" xmlns="http://www.w3.org/2000/svg">
    <path d="M87.5 50C87.5 29.2969 70.7031 12.5 50 12.5C29.2969 12.5 12.5 29.2969 12.5 50C12.5 70.7031 29.2969 87.5 50 87.5C70.7031 87.5 87.5 70.7031 87.5 50Z" stroke="#D11A2A" strokeWidth="6" strokeMiterlimit="10"/>
    <path d="M48.879 32.4317L50.0001 56.2501L51.1192 32.4317C51.1261 32.2794 51.1019 32.1273 51.048 31.9848C50.9942 31.8422 50.9118 31.7121 50.806 31.6024C50.7001 31.4927 50.573 31.4057 50.4325 31.3468C50.2919 31.2879 50.1408 31.2583 49.9883 31.2598V31.2598C49.8377 31.2612 49.689 31.293 49.5509 31.3532C49.4128 31.4134 49.2883 31.5008 49.1848 31.6101C49.0812 31.7195 49.0008 31.8486 48.9482 31.9898C48.8957 32.1309 48.8721 32.2812 48.879 32.4317V32.4317Z" stroke="#D11A2A" strokeWidth="5" strokeLinecap="round" strokeLinejoin="round"/>
    <path d="M50 71.8574C49.2274 71.8574 48.4722 71.6283 47.8298 71.1991C47.1874 70.7699 46.6868 70.1598 46.3911 69.446C46.0954 68.7323 46.0181 67.9468 46.1688 67.1891C46.3195 66.4314 46.6916 65.7353 47.2379 65.189C47.7842 64.6427 48.4802 64.2707 49.2379 64.12C49.9957 63.9693 50.7811 64.0466 51.4949 64.3423C52.2086 64.6379 52.8187 65.1386 53.2479 65.781C53.6772 66.4234 53.9063 67.1786 53.9063 67.9512C53.9063 68.9872 53.4947 69.9807 52.7621 70.7133C52.0296 71.4459 51.036 71.8574 50 71.8574Z" fill="#D11A2A"/>
    </svg>