<svg width="40" height="40" viewBox="0 0 40 40" fill="none" xmlns="http://www.w3.org/2000/svg">
    <rect width="40" height="40" rx="15" fill="#D11A2A"/>
    <g clipPath="url(#clip0_10_95)">
    <path d="M11.2291 9.89583L12.401 28.6458C12.4567 29.7292 13.2448 30.5208 14.276 30.5208H25.0573C26.0926 30.5208 26.866 29.7292 26.9323 28.6458L28.1041 9.89583" stroke="white" strokeWidth="2" strokeLinecap="round" strokeLinejoin="round"/>
    <path d="M9.35416 9.89583H29.9792H9.35416Z" fill="white"/>
    <path d="M9.35416 9.89583H29.9792" stroke="white" strokeWidth="2" strokeMiterlimit="10" strokeLinecap="round"/>
    <path d="M15.9166 9.89583V7.55208C15.9161 7.36726 15.9521 7.18415 16.0226 7.0133C16.093 6.84244 16.1966 6.6872 16.3273 6.55651C16.458 6.42582 16.6132 6.32225 16.7841 6.25178C16.9549 6.1813 17.1381 6.14529 17.3229 6.14583H22.0104C22.1952 6.14529 22.3783 6.1813 22.5492 6.25178C22.72 6.32225 22.8753 6.42582 23.006 6.55651C23.1366 6.6872 23.2402 6.84244 23.3107 7.0133C23.3812 7.18415 23.4172 7.36726 23.4166 7.55208V9.89583M19.6666 13.6458V26.7708M15.4479 13.6458L15.9166 26.7708M23.8854 13.6458L23.4166 26.7708" stroke="white" strokeWidth="2" strokeLinecap="round" strokeLinejoin="round"/>
    </g>
    <defs>
    <clipPath id="clip0_10_95">
    <rect width="22" height="26" fill="white" transform="translate(8.66666 5.33333)"/>
    </clipPath>
    </defs>
    </svg>
    