<svg width="40" height="40" viewBox="0 0 40 40" fill="none" xmlns="http://www.w3.org/2000/svg">
    <rect width="40" height="40" rx="15" fill="#24A0ED"/>
    <path d="M28.6667 16.3333V25.9167C28.6667 26.1903 28.6128 26.4612 28.5081 26.7139C28.4034 26.9667 28.2499 27.1964 28.0565 27.3898C27.863 27.5833 27.6334 27.7367 27.3806 27.8414C27.1278 27.9461 26.8569 28 26.5833 28H14.0833C13.5308 28 13.0009 27.7805 12.6102 27.3898C12.2195 26.9991 12 26.4692 12 25.9167V13.4167C12 12.8641 12.2195 12.3342 12.6102 11.9435C13.0009 11.5528 13.5308 11.3333 14.0833 11.3333H22.8063" stroke="white" strokeWidth="2" strokeLinecap="round" strokeLinejoin="round"/>
    <path d="M32.6219 7.44011C32.5458 7.35648 32.4535 7.28916 32.3506 7.2422C32.2478 7.19524 32.1365 7.16963 32.0234 7.1669C31.9104 7.16417 31.798 7.18439 31.693 7.22634C31.588 7.26828 31.4926 7.33108 31.4125 7.41094L30.7682 8.05209C30.6902 8.13022 30.6463 8.23616 30.6463 8.34662C30.6463 8.45708 30.6902 8.56302 30.7682 8.64115L31.3589 9.23073C31.3976 9.26963 31.4436 9.3005 31.4943 9.32156C31.5449 9.34262 31.5993 9.35346 31.6542 9.35346C31.709 9.35346 31.7634 9.34262 31.8141 9.32156C31.8647 9.3005 31.9108 9.26963 31.9495 9.23073L32.5776 8.60573C32.8953 8.28855 32.925 7.77188 32.6219 7.44011ZM29.4656 9.35417L20.0635 18.7396C20.0065 18.7964 19.9651 18.8669 19.9432 18.9443L19.5083 20.2396C19.4979 20.2747 19.4972 20.312 19.5062 20.3476C19.5152 20.3831 19.5337 20.4155 19.5596 20.4415C19.5855 20.4674 19.6179 20.4858 19.6535 20.4949C19.689 20.5039 19.7263 20.5031 19.7615 20.4927L21.0557 20.0578C21.1332 20.0359 21.2036 19.9945 21.2604 19.9375L30.6458 10.5344C30.7327 10.4466 30.7814 10.3281 30.7814 10.2047C30.7814 10.0812 30.7327 9.96276 30.6458 9.87501L30.1276 9.35417C30.0397 9.26655 29.9207 9.21734 29.7966 9.21734C29.6725 9.21734 29.5535 9.26655 29.4656 9.35417Z" fill="white"/>
    </svg>
    